<svg width="90" height="98" viewBox="0 0 90 98" fill="none" xmlns="http://www.w3.org/2000/svg">
<path fill-rule="evenodd" clip-rule="evenodd" d="M59.5585 23.7592L63.1706 20.1472V47.9197H35.398L53.8596 29.4582L59.5585 23.7592ZM65.6589 17.6589L66.2208 17.097C71.5987 11.7191 80.4281 11.7191 85.806 17.097L85.9666 17.2575C91.3445 22.6354 91.3445 31.3846 85.9666 36.7625L74.8094 47.9197H65.6589V17.6589ZM74.8897 50.4883L85.4047 61.0033C90.7826 66.3813 90.7826 75.1304 85.4047 80.5084L85.1639 80.6689C79.786 86.0468 71.0368 86.0468 65.6589 80.6689V50.4883H74.8897ZM63.1706 78.2609L35.4783 50.4883H63.1706V78.2609Z" fill="#C6D80A"/>
<path fill-rule="evenodd" clip-rule="evenodd" d="M0 48.8027V48.5619C0 40.2141 6.82274 33.3913 15.1706 33.3913H31.2241V64.0535H15.1706C6.82274 64.0535 0 57.1505 0 48.8027ZM48.3211 0H48.5619C56.99 0 63.8127 6.82274 63.8127 15.1706V16.0535L33.1505 46.796V15.1706C33.1505 6.82274 39.9733 0 48.3211 0ZM63.8127 81.6321V82.5953C63.8127 90.9432 56.99 97.7659 48.5619 97.7659H48.3211C39.9733 97.7659 33.1505 90.9432 33.1505 82.5953V51.291L63.8127 81.6321Z" fill="#00A0A4"/>
</svg>
